<?xml version="1.0" encoding="iso-8859-1"?>
<!-- Generator: Adobe Illustrator 19.0.0, SVG Export Plug-In . SVG Version: 6.00 Build 0)  -->
<svg version="1.1" id="Capa_1" xmlns="http://www.w3.org/2000/svg" xmlns:xlink="http://www.w3.org/1999/xlink" x="0px" y="0px"
	 viewBox="0 0 512 512" style="enable-background:new 0 0 512 512;" xml:space="preserve">
<g>
	<g>
		<path d="M0,31v450h512V31H0z M30,61h301v30H30V61z M482,451H30V121h452V451z M482,91H361V61h121V91z"/>
	</g>
</g>
<g>
	<g>
		<path d="M256,181c-57.897,0-105,47.103-105,105c0,57.897,47.103,105,105,105c57.897,0,105-47.103,105-105
			C361,228.103,313.897,181,256,181z M256,212.361c4.84,6.149,12.66,26.09,14.568,58.639h-29.136
			C243.341,238.451,251.16,218.51,256,212.361z M219.615,220.448c-4.585,14.753-7.281,32.366-8.228,50.552h-28.879
			C186.939,249.267,200.803,230.932,219.615,220.448z M182.509,301h28.879c0.946,18.186,3.643,35.798,8.228,50.552
			C200.803,341.068,186.939,322.733,182.509,301z M256.001,359.639c-4.841-6.149-12.661-26.19-14.569-58.739h29.137
			C268.66,333.449,260.841,353.49,256.001,359.639z M292.385,351.552c4.585-14.754,7.281-32.467,8.227-50.652h28.879
			C325.062,322.634,311.198,341.068,292.385,351.552z M300.612,271c-0.946-18.186-3.643-35.798-8.227-50.552
			c18.813,10.484,32.677,28.818,37.106,50.552H300.612z"/>
	</g>
</g>
<g>
</g>
<g>
</g>
<g>
</g>
<g>
</g>
<g>
</g>
<g>
</g>
<g>
</g>
<g>
</g>
<g>
</g>
<g>
</g>
<g>
</g>
<g>
</g>
<g>
</g>
<g>
</g>
<g>
</g>
</svg>
